<svg width="20" height="20" viewBox="0 0 20 20" fill="none" xmlns="http://www.w3.org/2000/svg">
<path d="M19.9936 9.40781C19.6959 4.55837 15.8687 0.559717 11.0208 0.04925C8.00147 -0.248522 5.06723 0.814951 2.94096 2.9419C0.814691 5.06884 -0.248443 8.00403 0.0492343 11.0243C0.517013 15.7461 4.30177 19.4895 9.02208 19.9575C9.36228 20 9.70249 20 10.0427 20C12.0414 20 13.9125 19.447 15.571 18.2984C15.9962 18.0007 16.1238 17.4051 15.8261 16.9797C15.5285 16.5543 14.9331 16.4267 14.5079 16.7245C12.9344 17.788 11.1058 18.2134 9.23471 18.0432C5.40743 17.6604 2.38813 14.6401 2.0054 10.8116C1.75025 8.38688 2.60075 6.0047 4.34429 4.2606C6.08783 2.51651 8.42673 1.70827 10.8932 1.92096C14.8055 2.30381 17.9099 5.53677 18.1225 9.49289C18.165 10.5564 18.0375 11.6198 17.6973 12.5982C17.4421 13.3214 16.7617 13.8319 15.9537 13.8319C14.9331 13.8319 14.1251 13.0236 14.1251 12.0027V6.0047C14.1251 5.49423 13.6999 5.0263 13.147 5.0263C12.5942 5.0263 12.169 5.45169 12.169 6.0047V6.30247C11.4035 5.74946 10.5105 5.45169 9.48986 5.45169C6.98087 5.40915 4.89712 7.49356 4.89712 10.0034C4.89712 12.5132 6.93834 14.5976 9.48986 14.5976C10.638 14.5976 11.6587 14.1722 12.4666 13.4915C13.062 14.8103 14.3803 15.7886 15.9112 15.7886C17.5272 15.7886 18.9305 14.7677 19.4833 13.2789C19.866 12.0027 20.0361 10.7265 19.9936 9.40781ZM9.48986 12.6833C8.00147 12.6833 6.81076 11.4922 6.81076 10.0034C6.81076 8.51449 8.00147 7.3234 9.48986 7.3234C10.9782 7.3234 12.169 8.51449 12.169 10.0034C12.169 11.4922 10.9357 12.6833 9.48986 12.6833Z" fill="#9D9D9D"/>
</svg>
