<svg width="20" height="20" viewBox="0 0 20 20" fill="none" xmlns="http://www.w3.org/2000/svg">
<path d="M10 0C4.51131 0 0.0447977 4.46667 0.000354812 9.93333C-0.0218667 12.6 1.00032 15.1333 2.88914 17.0222C4.75575 18.9333 7.26677 19.9778 9.93335 20H10C15.4887 20 19.9552 15.5333 19.9997 10.0667C20.0441 4.55556 15.5776 0.0444444 10 0ZM14.8443 13.3333L14.4221 13.7556L14.3999 13.7778C13.6666 14.5111 13.0444 14.6889 12.0666 14.4C11.0444 14.0889 10.1333 13.5333 9.31115 12.8667C8.13341 11.9111 6.86679 10.6667 6.04459 9.37778C5.2224 8.04445 4.95574 6.64444 6.11126 5.48889L6.13348 5.46667L6.55569 5.04444C6.86679 4.73333 7.37788 4.73333 7.7112 5.04444L9.02227 6.35556C9.33337 6.66667 9.33337 7.17778 9.02227 7.51111L8.24452 8.28889L8.26674 8.31111C9.13338 9.62222 10.2667 10.7556 11.5777 11.6222L11.6 11.6444L12.3777 10.8667C12.6888 10.5556 13.1999 10.5556 13.5332 10.8667L14.8443 12.1778C15.1776 12.5111 15.1776 13.0222 14.8443 13.3333Z" fill="#9D9D9D"/>
</svg>
